<svg width="1080" height="1080" xmlns="http://www.w3.org/2000/svg">
 <g>
  <title>Layer 1</title>
  <path id="svg_5" d="m-23.9945,-19.99448l1122.01196,0l0,1106.01172l-1122.01196,0l0,-1106.01172z" opacity="undefined" fill="#1b75ba"/>
  <g id="svg_4">
   <path fill="#fff" d="m103.70578,274.88309l135.82604,0l0,64.56961l2.08964,0c29.25485,-54.33042 79.406,-79.09255 139.90082,-79.09255c89.12278,0 140.42323,47.12118 140.42323,156.72236l0,409.25432l-141.36356,0l0,-380.31293c0,-56.31556 -18.49324,-76.89844 -60.49484,-76.89844c-50.25563,0 -74.80881,30.71758 -74.80881,91.21241l0,365.6855l-141.57254,0l0,-551.1403l0.00001,0z" class="cls-2" id="svg_3"/>
   <path fill="#f6921e" d="m856.29921,473.71152c0,-53.2856 -10.44815,-110.64599 -63.52479,-110.64599c-69.6892,0 -80.97322,61.53965 -80.97322,188.58924c0,135.82604 13.37364,192.66402 75.85362,192.66402c48.16601,0 68.64439,-38.97163 68.64439,-129.13923l135.82604,0c0,144.49801 -59.45001,225.47123 -210.11245,225.47123c-141.46804,0 -211.15726,-68.64439 -211.15726,-290.04084c0,-226.51605 92.25722,-290.14532 223.48609,-290.14532s197.8881,82.01803 197.8881,213.1424l-135.93052,0.10448l0,0.00001z" class="cls-3" id="svg_11"/>
  </g>
 </g>

</svg>