<svg id="Layer_1" data-name="Layer 1" xmlns="http://www.w3.org/2000/svg" viewBox="0 0 677.05 113.09"><defs><style>.cls-1{fill:#1b75bb;}.cls-2{fill:#fff;}.cls-3{fill:#f6921e;}.cls-4{fill:#a6a8ab;}</style></defs><title>logo</title><polygon class="cls-1" points="0 0 0 113.09 472.07 113.09 509.12 0 0 0"/><path class="cls-2" d="M36.71,38.39h13v6.18h.2C52.71,39.37,57.51,37,63.3,37c8.53,0,13.44,4.51,13.44,15V91.17H63.21V54.77c0-5.39-1.77-7.36-5.79-7.36-4.81,0-7.16,2.94-7.16,8.73v35H36.71Z" transform="translate(-0.47 0.13)"/><path class="cls-2" d="M103.83,37c16.19-.29,20.8,9.32,20.8,27.77,0,18.05-5.39,27.76-20.8,27.76C87.64,92.84,83,83.22,83,64.78,83,46.73,88.42,37,103.83,37Zm0,46.31c5.49,0,7.26-5.3,7.26-18.54s-1.76-18.54-7.26-18.54c-6.67,0-7.26,7.75-7.26,18.54S97.15,83.32,103.83,83.32Z" transform="translate(-0.47 0.13)"/><path class="cls-2" d="M133.85,23.28h13.54V38.39h7.85v9.22h-7.85V76.16c0,4.22.89,5.78,4.81,5.78a28,28,0,0,0,3-.19v9.42a87,87,0,0,1-8.83.59c-10.6,0-12.56-3.34-12.56-13.93V47.61H127V38.39h6.87Z" transform="translate(-0.47 0.13)"/><path class="cls-2" d="M159.46,20.34H173V31.91H159.46Zm0,18.05H173V91.17H159.46Z" transform="translate(-0.47 0.13)"/><path class="cls-2" d="M206.95,57.42c0-5.1-1-10.59-6.08-10.59-6.67,0-7.75,5.89-7.75,18.05,0,13,1.27,18.44,7.26,18.44,4.61,0,6.57-3.73,6.57-12.36H219.9c0,13.83-5.69,21.58-20.11,21.58-13.54,0-20.21-6.57-20.21-27.76C179.58,43.1,188.41,37,201,37s18.93,7.85,18.93,20.4Z" transform="translate(-0.47 0.13)"/><path class="cls-2" d="M226.48,20.34H240V31.91H226.48Zm0,18.05H240V91.17H226.48Z" transform="translate(-0.47 0.13)"/><path class="cls-2" d="M248.46,54.58V53.3C248.46,41.13,256.8,37,267,37c16.09,0,19.13,6.67,19.13,16.19V81c0,5,.39,7.06,1.67,10.2h-13a20.92,20.92,0,0,1-1.67-5.5H273c-3.14,5.5-6.87,6.87-13.44,6.87-9.42,0-12.75-8-12.75-15.11,0-10,4-13.93,13.34-16.48l7.65-2.06c4-1.08,5.4-2.65,5.4-6.18,0-4-1.67-6.47-6.28-6.47-4.22,0-6.28,2.65-6.28,6.87v1.47Zm24.73,10.2a15.2,15.2,0,0,1-5.79,2.65c-5.49,1.18-7.65,3.83-7.65,8.53,0,4,1.47,7.36,5.1,7.36s8.34-2.26,8.34-8.14Z" transform="translate(-0.47 0.13)"/><path class="cls-2" d="M304.68,73.9v1.77c0,4.61,2.45,7.65,7.07,7.65,4.22,0,6.87-2.06,6.87-6.28,0-3.43-2.26-4.9-4.91-6l-9.52-3.44C296.73,65,292.9,60.37,292.9,52.91c0-8.63,5.59-15.89,19.43-15.89,12.26,0,18.05,5.49,18.05,15v2.16H318.22c0-5.4-1.57-7.95-6-7.95-3.43,0-6.38,1.86-6.38,5.69,0,2.65,1.28,4.71,5.89,6.18l8.14,2.75C328.42,63.7,331.56,68,331.56,76c0,11.09-8.24,16.58-19.62,16.58-15.3,0-19.43-6.57-19.43-16.78V73.9Z" transform="translate(-0.47 0.13)"/><path class="cls-3" d="M366.2,57.42c0-5.1-1-10.59-6.08-10.59-6.67,0-7.75,5.89-7.75,18.05,0,13,1.28,18.44,7.26,18.44,4.61,0,6.57-3.73,6.57-12.36h13c0,13.83-5.69,21.58-20.11,21.58-13.54,0-20.21-6.57-20.21-27.76,0-21.68,8.83-27.77,21.39-27.77s18.94,7.85,18.94,20.4Z" transform="translate(-0.47 0.13)"/><path class="cls-3" d="M404.27,37c16.19-.29,20.8,9.32,20.8,27.77,0,18.05-5.4,27.76-20.8,27.76-16.19.29-20.8-9.32-20.8-27.76C383.47,46.73,388.87,37,404.27,37Zm0,46.31c5.5,0,7.26-5.3,7.26-18.54s-1.76-18.54-7.26-18.54C397.6,46.24,397,54,397,64.78S397.6,83.32,404.27,83.32Z" transform="translate(-0.47 0.13)"/><path class="cls-3" d="M431.85,21.12h13.54v70H431.85Z" transform="translate(-0.47 0.13)"/><path class="cls-4" d="M512.79,75.87V91.17h-13V75.87Z" transform="translate(-0.47 0.13)"/><path class="cls-4" d="M547,57.42c0-5.1-1-10.59-6.08-10.59-6.67,0-7.75,5.89-7.75,18.05,0,13,1.27,18.44,7.26,18.44,4.61,0,6.57-3.73,6.57-12.36H560c0,13.83-5.69,21.58-20.11,21.58-13.54,0-20.21-6.57-20.21-27.76C519.66,43.1,528.49,37,541,37S560,44.86,560,57.42Z" transform="translate(-0.47 0.13)"/><path class="cls-4" d="M585.11,37c16.19-.29,20.8,9.32,20.8,27.77,0,18.05-5.39,27.76-20.8,27.76-16.19.29-20.8-9.32-20.8-27.76C564.3,46.73,569.7,37,585.11,37Zm0,46.31c5.49,0,7.26-5.3,7.26-18.54s-1.77-18.54-7.26-18.54c-6.67,0-7.26,7.75-7.26,18.54S578.43,83.32,585.11,83.32Z" transform="translate(-0.47 0.13)"/><path class="cls-4" d="M612.19,38.39h13v5.39h.2C628.77,39,632.89,37,638.68,37c6.28,0,10.69,2.94,12.17,8.44h.2c2.06-5.59,7-8.44,13.34-8.44,9,0,13.15,5.59,13.15,15.8V91.17H664V54.28c0-4.41-1.47-6.87-5.3-6.87-4.32,0-7.06,2.85-7.06,9V91.17H638.09V54.28c0-4.41-1.47-6.87-5.3-6.87-4.32,0-7.06,2.85-7.06,9V91.17H612.19Z" transform="translate(-0.47 0.13)"/></svg>